<?xml version="1.0" encoding="UTF-8" standalone="no"?>
<!DOCTYPE svg PUBLIC "-//W3C//DTD SVG 1.1//EN"
 "http://www.w3.org/Graphics/SVG/1.1/DTD/svg11.dtd">
<!-- Generated by graphviz version 12.2.1 (20241206.2353)
 -->
<!-- Title: G Pages: 1 -->
<svg width="1238pt" height="2556pt"
 viewBox="0.00 0.00 445.75 920.00" xmlns="http://www.w3.org/2000/svg" xmlns:xlink="http://www.w3.org/1999/xlink">
<g id="graph0" class="graph" transform="scale(2.77778 2.77778) rotate(0) translate(4 916)">
<title>G</title>
<polygon fill="white" stroke="none" points="-4,4 -4,-916 441.75,-916 441.75,4 -4,4"/>
<!-- 13311093152 -->
<g id="node1" class="node">
<title>13311093152</title>
<polygon fill="none" stroke="black" points="3.75,-830 3.75,-911.5 434,-911.5 434,-830 3.75,-830"/>
<polygon fill="black" stroke="none" points="3.75,-830 3.75,-911.5 434,-911.5 434,-830 3.75,-830"/>
<polygon fill="black" stroke="none" points="5.75,-871 5.75,-909.5 432,-909.5 432,-871 5.75,-871"/>
<polygon fill="none" stroke="black" points="5.75,-871 5.75,-909.5 432,-909.5 432,-871 5.75,-871"/>
<text text-anchor="start" x="188.88" y="-884.3" font-family="Helvetica,sans-Serif" font-weight="bold" font-size="16.00" fill="white">Conv2D</text>
<polygon fill="white" stroke="none" points="5.75,-832 5.75,-869 208.5,-869 208.5,-832 5.75,-832"/>
<polygon fill="none" stroke="black" points="5.75,-832 5.75,-869 208.5,-869 208.5,-832 5.75,-832"/>
<text text-anchor="start" x="16.75" y="-845.7" font-family="Helvetica,sans-Serif" font-size="14.00">Input shape: </text>
<text text-anchor="start" x="94.75" y="-845.7" font-family="Helvetica,sans-Serif" font-weight="bold" font-size="14.00">(None, 32, 32, 3)</text>
<polygon fill="white" stroke="none" points="210.5,-832 210.5,-869 432,-869 432,-832 210.5,-832"/>
<polygon fill="none" stroke="black" points="210.5,-832 210.5,-869 432,-869 432,-832 210.5,-832"/>
<text text-anchor="start" x="221.5" y="-845.7" font-family="Helvetica,sans-Serif" font-size="14.00">Output shape: </text>
<text text-anchor="start" x="310.75" y="-845.7" font-family="Helvetica,sans-Serif" font-weight="bold" font-size="14.00">(None, 30, 30, 32)</text>
</g>
<!-- 13300845872 -->
<g id="node2" class="node">
<title>13300845872</title>
<polygon fill="none" stroke="black" points="0,-711.5 0,-793 437.75,-793 437.75,-711.5 0,-711.5"/>
<polygon fill="black" stroke="none" points="0,-711.5 0,-793 437.75,-793 437.75,-711.5 0,-711.5"/>
<polygon fill="black" stroke="none" points="2,-752.5 2,-791 435.75,-791 435.75,-752.5 2,-752.5"/>
<polygon fill="none" stroke="black" points="2,-752.5 2,-791 435.75,-791 435.75,-752.5 2,-752.5"/>
<text text-anchor="start" x="163.75" y="-765.8" font-family="Helvetica,sans-Serif" font-weight="bold" font-size="16.00" fill="white">MaxPooling2D</text>
<polygon fill="white" stroke="none" points="2,-713.5 2,-750.5 212.25,-750.5 212.25,-713.5 2,-713.5"/>
<polygon fill="none" stroke="black" points="2,-713.5 2,-750.5 212.25,-750.5 212.25,-713.5 2,-713.5"/>
<text text-anchor="start" x="13" y="-727.2" font-family="Helvetica,sans-Serif" font-size="14.00">Input shape: </text>
<text text-anchor="start" x="91" y="-727.2" font-family="Helvetica,sans-Serif" font-weight="bold" font-size="14.00">(None, 30, 30, 32)</text>
<polygon fill="white" stroke="none" points="214.25,-713.5 214.25,-750.5 435.75,-750.5 435.75,-713.5 214.25,-713.5"/>
<polygon fill="none" stroke="black" points="214.25,-713.5 214.25,-750.5 435.75,-750.5 435.75,-713.5 214.25,-713.5"/>
<text text-anchor="start" x="225.25" y="-727.2" font-family="Helvetica,sans-Serif" font-size="14.00">Output shape: </text>
<text text-anchor="start" x="314.5" y="-727.2" font-family="Helvetica,sans-Serif" font-weight="bold" font-size="14.00">(None, 15, 15, 32)</text>
</g>
<!-- 13311093152&#45;&gt;13300845872 -->
<g id="edge1" class="edge">
<title>13311093152&#45;&gt;13300845872</title>
<path fill="none" stroke="black" stroke-width="2" d="M218.88,-829.64C218.88,-829.64 218.88,-806.32 218.88,-806.32"/>
<polygon fill="black" stroke="black" stroke-width="2" points="222.38,-806.32 218.88,-796.32 215.38,-806.32 222.38,-806.32"/>
</g>
<!-- 13311071616 -->
<g id="node3" class="node">
<title>13311071616</title>
<polygon fill="none" stroke="black" points="0,-593 0,-674.5 437.75,-674.5 437.75,-593 0,-593"/>
<polygon fill="black" stroke="none" points="0,-593 0,-674.5 437.75,-674.5 437.75,-593 0,-593"/>
<polygon fill="black" stroke="none" points="2,-634 2,-672.5 435.75,-672.5 435.75,-634 2,-634"/>
<polygon fill="none" stroke="black" points="2,-634 2,-672.5 435.75,-672.5 435.75,-634 2,-634"/>
<text text-anchor="start" x="188.88" y="-647.3" font-family="Helvetica,sans-Serif" font-weight="bold" font-size="16.00" fill="white">Conv2D</text>
<polygon fill="white" stroke="none" points="2,-595 2,-632 212.25,-632 212.25,-595 2,-595"/>
<polygon fill="none" stroke="black" points="2,-595 2,-632 212.25,-632 212.25,-595 2,-595"/>
<text text-anchor="start" x="13" y="-608.7" font-family="Helvetica,sans-Serif" font-size="14.00">Input shape: </text>
<text text-anchor="start" x="91" y="-608.7" font-family="Helvetica,sans-Serif" font-weight="bold" font-size="14.00">(None, 15, 15, 32)</text>
<polygon fill="white" stroke="none" points="214.25,-595 214.25,-632 435.75,-632 435.75,-595 214.25,-595"/>
<polygon fill="none" stroke="black" points="214.25,-595 214.25,-632 435.75,-632 435.75,-595 214.25,-595"/>
<text text-anchor="start" x="225.25" y="-608.7" font-family="Helvetica,sans-Serif" font-size="14.00">Output shape: </text>
<text text-anchor="start" x="314.5" y="-608.7" font-family="Helvetica,sans-Serif" font-weight="bold" font-size="14.00">(None, 13, 13, 64)</text>
</g>
<!-- 13300845872&#45;&gt;13311071616 -->
<g id="edge2" class="edge">
<title>13300845872&#45;&gt;13311071616</title>
<path fill="none" stroke="black" stroke-width="2" d="M218.88,-711.14C218.88,-711.14 218.88,-687.82 218.88,-687.82"/>
<polygon fill="black" stroke="black" stroke-width="2" points="222.38,-687.82 218.88,-677.82 215.38,-687.82 222.38,-687.82"/>
</g>
<!-- 13311074064 -->
<g id="node4" class="node">
<title>13311074064</title>
<polygon fill="none" stroke="black" points="7.5,-474.5 7.5,-556 430.25,-556 430.25,-474.5 7.5,-474.5"/>
<polygon fill="black" stroke="none" points="7.5,-474.5 7.5,-556 430.25,-556 430.25,-474.5 7.5,-474.5"/>
<polygon fill="black" stroke="none" points="9.5,-515.5 9.5,-554 428.25,-554 428.25,-515.5 9.5,-515.5"/>
<polygon fill="none" stroke="black" points="9.5,-515.5 9.5,-554 428.25,-554 428.25,-515.5 9.5,-515.5"/>
<text text-anchor="start" x="163.75" y="-528.8" font-family="Helvetica,sans-Serif" font-weight="bold" font-size="16.00" fill="white">MaxPooling2D</text>
<polygon fill="white" stroke="none" points="9.5,-476.5 9.5,-513.5 219.75,-513.5 219.75,-476.5 9.5,-476.5"/>
<polygon fill="none" stroke="black" points="9.5,-476.5 9.5,-513.5 219.75,-513.5 219.75,-476.5 9.5,-476.5"/>
<text text-anchor="start" x="20.5" y="-490.2" font-family="Helvetica,sans-Serif" font-size="14.00">Input shape: </text>
<text text-anchor="start" x="98.5" y="-490.2" font-family="Helvetica,sans-Serif" font-weight="bold" font-size="14.00">(None, 13, 13, 64)</text>
<polygon fill="white" stroke="none" points="221.75,-476.5 221.75,-513.5 428.25,-513.5 428.25,-476.5 221.75,-476.5"/>
<polygon fill="none" stroke="black" points="221.75,-476.5 221.75,-513.5 428.25,-513.5 428.25,-476.5 221.75,-476.5"/>
<text text-anchor="start" x="232.75" y="-490.2" font-family="Helvetica,sans-Serif" font-size="14.00">Output shape: </text>
<text text-anchor="start" x="322" y="-490.2" font-family="Helvetica,sans-Serif" font-weight="bold" font-size="14.00">(None, 6, 6, 64)</text>
</g>
<!-- 13311071616&#45;&gt;13311074064 -->
<g id="edge3" class="edge">
<title>13311071616&#45;&gt;13311074064</title>
<path fill="none" stroke="black" stroke-width="2" d="M218.88,-592.64C218.88,-592.64 218.88,-569.32 218.88,-569.32"/>
<polygon fill="black" stroke="black" stroke-width="2" points="222.38,-569.32 218.88,-559.32 215.38,-569.32 222.38,-569.32"/>
</g>
<!-- 13311071808 -->
<g id="node5" class="node">
<title>13311071808</title>
<polygon fill="none" stroke="black" points="22.5,-356 22.5,-437.5 415.25,-437.5 415.25,-356 22.5,-356"/>
<polygon fill="black" stroke="none" points="22.5,-356 22.5,-437.5 415.25,-437.5 415.25,-356 22.5,-356"/>
<polygon fill="black" stroke="none" points="24.5,-397 24.5,-435.5 413.25,-435.5 413.25,-397 24.5,-397"/>
<polygon fill="none" stroke="black" points="24.5,-397 24.5,-435.5 413.25,-435.5 413.25,-397 24.5,-397"/>
<text text-anchor="start" x="192.62" y="-410.3" font-family="Helvetica,sans-Serif" font-weight="bold" font-size="16.00" fill="white">Flatten</text>
<polygon fill="white" stroke="none" points="24.5,-358 24.5,-395 219.75,-395 219.75,-358 24.5,-358"/>
<polygon fill="none" stroke="black" points="24.5,-358 24.5,-395 219.75,-395 219.75,-358 24.5,-358"/>
<text text-anchor="start" x="35.5" y="-371.7" font-family="Helvetica,sans-Serif" font-size="14.00">Input shape: </text>
<text text-anchor="start" x="113.5" y="-371.7" font-family="Helvetica,sans-Serif" font-weight="bold" font-size="14.00">(None, 6, 6, 64)</text>
<polygon fill="white" stroke="none" points="221.75,-358 221.75,-395 413.25,-395 413.25,-358 221.75,-358"/>
<polygon fill="none" stroke="black" points="221.75,-358 221.75,-395 413.25,-395 413.25,-358 221.75,-358"/>
<text text-anchor="start" x="232.75" y="-371.7" font-family="Helvetica,sans-Serif" font-size="14.00">Output shape: </text>
<text text-anchor="start" x="322" y="-371.7" font-family="Helvetica,sans-Serif" font-weight="bold" font-size="14.00">(None, 2304)</text>
</g>
<!-- 13311074064&#45;&gt;13311071808 -->
<g id="edge4" class="edge">
<title>13311074064&#45;&gt;13311071808</title>
<path fill="none" stroke="black" stroke-width="2" d="M218.88,-474.14C218.88,-474.14 218.88,-450.82 218.88,-450.82"/>
<polygon fill="black" stroke="black" stroke-width="2" points="222.38,-450.82 218.88,-440.82 215.38,-450.82 222.38,-450.82"/>
</g>
<!-- 13311025600 -->
<g id="node6" class="node">
<title>13311025600</title>
<polygon fill="none" stroke="black" points="37.5,-237.5 37.5,-319 400.25,-319 400.25,-237.5 37.5,-237.5"/>
<polygon fill="black" stroke="none" points="37.5,-237.5 37.5,-319 400.25,-319 400.25,-237.5 37.5,-237.5"/>
<polygon fill="black" stroke="none" points="39.5,-278.5 39.5,-317 398.25,-317 398.25,-278.5 39.5,-278.5"/>
<polygon fill="none" stroke="black" points="39.5,-278.5 39.5,-317 398.25,-317 398.25,-278.5 39.5,-278.5"/>
<text text-anchor="start" x="194.88" y="-291.8" font-family="Helvetica,sans-Serif" font-weight="bold" font-size="16.00" fill="white">Dense</text>
<polygon fill="white" stroke="none" points="39.5,-239.5 39.5,-276.5 219.75,-276.5 219.75,-239.5 39.5,-239.5"/>
<polygon fill="none" stroke="black" points="39.5,-239.5 39.5,-276.5 219.75,-276.5 219.75,-239.5 39.5,-239.5"/>
<text text-anchor="start" x="50.5" y="-253.2" font-family="Helvetica,sans-Serif" font-size="14.00">Input shape: </text>
<text text-anchor="start" x="128.5" y="-253.2" font-family="Helvetica,sans-Serif" font-weight="bold" font-size="14.00">(None, 2304)</text>
<polygon fill="white" stroke="none" points="221.75,-239.5 221.75,-276.5 398.25,-276.5 398.25,-239.5 221.75,-239.5"/>
<polygon fill="none" stroke="black" points="221.75,-239.5 221.75,-276.5 398.25,-276.5 398.25,-239.5 221.75,-239.5"/>
<text text-anchor="start" x="232.75" y="-253.2" font-family="Helvetica,sans-Serif" font-size="14.00">Output shape: </text>
<text text-anchor="start" x="322" y="-253.2" font-family="Helvetica,sans-Serif" font-weight="bold" font-size="14.00">(None, 64)</text>
</g>
<!-- 13311071808&#45;&gt;13311025600 -->
<g id="edge5" class="edge">
<title>13311071808&#45;&gt;13311025600</title>
<path fill="none" stroke="black" stroke-width="2" d="M218.88,-355.64C218.88,-355.64 218.88,-332.32 218.88,-332.32"/>
<polygon fill="black" stroke="black" stroke-width="2" points="222.38,-332.32 218.88,-322.32 215.38,-332.32 222.38,-332.32"/>
</g>
<!-- 13311026896 -->
<g id="node7" class="node">
<title>13311026896</title>
<polygon fill="none" stroke="black" points="45,-119 45,-200.5 392.75,-200.5 392.75,-119 45,-119"/>
<polygon fill="black" stroke="none" points="45,-119 45,-200.5 392.75,-200.5 392.75,-119 45,-119"/>
<polygon fill="black" stroke="none" points="47,-160 47,-198.5 390.75,-198.5 390.75,-160 47,-160"/>
<polygon fill="none" stroke="black" points="47,-160 47,-198.5 390.75,-198.5 390.75,-160 47,-160"/>
<text text-anchor="start" x="188.12" y="-173.3" font-family="Helvetica,sans-Serif" font-weight="bold" font-size="16.00" fill="white">Dropout</text>
<polygon fill="white" stroke="none" points="47,-121 47,-158 212.25,-158 212.25,-121 47,-121"/>
<polygon fill="none" stroke="black" points="47,-121 47,-158 212.25,-158 212.25,-121 47,-121"/>
<text text-anchor="start" x="58" y="-134.7" font-family="Helvetica,sans-Serif" font-size="14.00">Input shape: </text>
<text text-anchor="start" x="136" y="-134.7" font-family="Helvetica,sans-Serif" font-weight="bold" font-size="14.00">(None, 64)</text>
<polygon fill="white" stroke="none" points="214.25,-121 214.25,-158 390.75,-158 390.75,-121 214.25,-121"/>
<polygon fill="none" stroke="black" points="214.25,-121 214.25,-158 390.75,-158 390.75,-121 214.25,-121"/>
<text text-anchor="start" x="225.25" y="-134.7" font-family="Helvetica,sans-Serif" font-size="14.00">Output shape: </text>
<text text-anchor="start" x="314.5" y="-134.7" font-family="Helvetica,sans-Serif" font-weight="bold" font-size="14.00">(None, 64)</text>
</g>
<!-- 13311025600&#45;&gt;13311026896 -->
<g id="edge6" class="edge">
<title>13311025600&#45;&gt;13311026896</title>
<path fill="none" stroke="black" stroke-width="2" d="M218.88,-237.14C218.88,-237.14 218.88,-213.82 218.88,-213.82"/>
<polygon fill="black" stroke="black" stroke-width="2" points="222.38,-213.82 218.88,-203.82 215.38,-213.82 222.38,-213.82"/>
</g>
<!-- 13311027520 -->
<g id="node8" class="node">
<title>13311027520</title>
<polygon fill="none" stroke="black" points="48.75,-0.5 48.75,-82 389,-82 389,-0.5 48.75,-0.5"/>
<polygon fill="black" stroke="none" points="48.75,-0.5 48.75,-82 389,-82 389,-0.5 48.75,-0.5"/>
<polygon fill="black" stroke="none" points="50.75,-41.5 50.75,-80 387,-80 387,-41.5 50.75,-41.5"/>
<polygon fill="none" stroke="black" points="50.75,-41.5 50.75,-80 387,-80 387,-41.5 50.75,-41.5"/>
<text text-anchor="start" x="194.88" y="-54.8" font-family="Helvetica,sans-Serif" font-weight="bold" font-size="16.00" fill="white">Dense</text>
<polygon fill="white" stroke="none" points="50.75,-2.5 50.75,-39.5 216,-39.5 216,-2.5 50.75,-2.5"/>
<polygon fill="none" stroke="black" points="50.75,-2.5 50.75,-39.5 216,-39.5 216,-2.5 50.75,-2.5"/>
<text text-anchor="start" x="61.75" y="-16.2" font-family="Helvetica,sans-Serif" font-size="14.00">Input shape: </text>
<text text-anchor="start" x="139.75" y="-16.2" font-family="Helvetica,sans-Serif" font-weight="bold" font-size="14.00">(None, 64)</text>
<polygon fill="white" stroke="none" points="218,-2.5 218,-39.5 387,-39.5 387,-2.5 218,-2.5"/>
<polygon fill="none" stroke="black" points="218,-2.5 218,-39.5 387,-39.5 387,-2.5 218,-2.5"/>
<text text-anchor="start" x="229" y="-16.2" font-family="Helvetica,sans-Serif" font-size="14.00">Output shape: </text>
<text text-anchor="start" x="318.25" y="-16.2" font-family="Helvetica,sans-Serif" font-weight="bold" font-size="14.00">(None, 1)</text>
</g>
<!-- 13311026896&#45;&gt;13311027520 -->
<g id="edge7" class="edge">
<title>13311026896&#45;&gt;13311027520</title>
<path fill="none" stroke="black" stroke-width="2" d="M218.88,-118.64C218.88,-118.64 218.88,-95.32 218.88,-95.32"/>
<polygon fill="black" stroke="black" stroke-width="2" points="222.38,-95.32 218.88,-85.32 215.38,-95.32 222.38,-95.32"/>
</g>
</g>
</svg>
